<svg width="30" height="30" viewBox="0 0 30 30" fill="none" xmlns="http://www.w3.org/2000/svg">
<g clip-path="url(#clip0_5514_206)">
<rect width="30" height="30" rx="15" fill="#EDF2F7"/>
<path d="M23.84 7.60987C23.3292 7.09888 22.7228 6.69352 22.0554 6.41696C21.3879 6.14039 20.6725 5.99805 19.95 5.99805C19.2275 5.99805 18.5121 6.14039 17.8446 6.41696C17.1772 6.69352 16.5708 7.09888 16.06 7.60987L15 8.66987L13.94 7.60987C12.9083 6.57818 11.509 5.99858 10.05 5.99858C8.59096 5.99858 7.19169 6.57818 6.16 7.60987C5.1283 8.64156 4.54871 10.0408 4.54871 11.4999C4.54871 12.9589 5.1283 14.3582 6.16 15.3899L7.22 16.4499L15 24.2299L22.78 16.4499L23.84 15.3899C24.351 14.8791 24.7563 14.2727 25.0329 13.6052C25.3095 12.9378 25.4518 12.2224 25.4518 11.4999C25.4518 10.7774 25.3095 10.062 25.0329 9.39452C24.7563 8.72706 24.351 8.12063 23.84 7.60987Z" fill="#183C59" fill-opacity="0.5" stroke="#EDF2F7" stroke-width="2.17" stroke-linecap="round" stroke-linejoin="round"/>
</g>
<defs>
<clipPath id="clip0_5514_206">
<rect width="30" height="30" rx="15" fill="white"/>
</clipPath>
</defs>
</svg>
