<svg width="241" height="60" viewBox="0 0 241 60" fill="none" xmlns="http://www.w3.org/2000/svg">
<path d="M26.8326 32.1692V39.2514C26.8326 42.593 24.1892 45.4857 20.8476 45.5854C17.3564 45.6852 14.4636 42.8423 14.4636 39.401V15.9599C14.4636 11.9699 11.2218 8.72807 7.23182 8.72807H0V39.1017C0 50.4731 9.07719 59.8995 20.4486 59.9992C31.9198 60.099 41.2962 50.8223 41.2962 39.3511V28.9772H30.0245C28.2789 28.9772 26.8326 30.3737 26.8326 32.1692Z" fill="url(#paint0_linear_1_170)"/>
<path d="M45.7854 0H34.414C30.1747 0 26.7832 3.44135 26.7832 7.63082V7.78045V16.5584V19.1519C26.7832 19.2516 26.883 19.2516 26.9328 19.2017C27.3318 18.3539 27.7807 16.5584 32.2195 16.5584H35.4614H45.7854C50.0248 16.5584 53.4163 13.117 53.4163 8.92756V7.63082C53.4163 3.44135 49.9749 0 45.7854 0Z" fill="url(#paint1_linear_1_170)"/>
<path d="M65.5854 37.7052C65.5854 41.0468 64.1889 42.6927 61.8448 42.6927C59.5506 42.6927 58.1541 41.0468 58.1541 37.7052V28.9273H55.7601V37.2065C55.7601 42.0942 57.5556 44.7874 61.795 44.7874C66.1341 44.7874 67.9295 42.0942 67.9295 37.2065V28.9273H65.5356V37.7052H65.5854Z" fill="#0D0D21"/>
<path d="M76.5084 33.0171C75.0621 33.0171 73.7154 33.7652 72.8676 35.062L72.8177 33.2665H70.6232V44.5381H72.9174V37.0569C73.6656 35.8599 74.8626 35.062 76.0595 35.062C76.9573 35.062 77.5558 35.4111 77.9049 35.9098C78.4037 36.7078 78.4535 37.8051 78.4535 38.8524V44.4883H80.7478V38.6529C80.7478 36.9572 80.5483 35.4609 79.7503 34.4136C79.052 33.5158 78.0047 33.0171 76.5084 33.0171Z" fill="#0D0D21"/>
<path d="M92.0686 34.4634C91.1708 33.5158 89.8242 33.017 88.5773 33.017C85.2357 33.017 82.9914 35.8599 82.9914 38.9023C82.9914 42.194 85.3355 44.8373 88.5275 44.8373C89.8242 44.8373 91.3204 44.2388 92.1184 43.0917L92.1683 44.588H94.3628V27.8301H92.0686V34.4634ZM92.0686 40.7476C91.4701 42.0942 90.0736 42.7426 88.9265 42.7426C86.732 42.7426 85.3854 40.9471 85.3854 38.9521C85.3854 37.1068 86.5325 35.1118 88.9763 35.1118C90.0736 35.1118 91.3204 35.6604 92.1184 36.7576V40.7476H92.0686Z" fill="#0D0D21"/>
<path d="M102.293 33.017C99.151 33.017 96.6573 35.5606 96.6573 38.9521C96.6573 42.2937 98.752 44.8373 102.293 44.8373C104.587 44.8373 106.133 43.9894 107.281 42.1441L105.685 41.0967C104.986 42.3436 103.889 42.8922 102.393 42.8922C100.398 42.8922 99.151 41.3461 99.0014 39.5007H107.43C107.48 39.1516 107.53 38.6528 107.53 38.2538C107.53 35.2115 105.335 33.017 102.293 33.017ZM99.151 37.7052C99.55 36.1092 100.597 34.9122 102.343 34.9122C103.939 34.9122 105.036 36.1591 105.136 37.7052H99.151Z" fill="#0D0D21"/>
<path d="M131.22 33.2666H128.926V44.5383H131.22V33.2666Z" fill="#0D0D21"/>
<path d="M131.22 28.8276H128.926V31.2215H131.22V28.8276Z" fill="#0D0D21"/>
<path d="M138.452 37.8549C137.405 37.4559 136.358 37.007 136.358 36.2091C136.358 35.4111 137.006 34.8624 137.904 34.8624C138.702 34.8624 139.599 35.2614 140.148 35.7103L141.495 34.2639C140.547 33.4161 139.25 32.9672 137.954 32.9672C136.008 32.9672 134.213 34.0644 134.213 36.3587C134.213 38.3537 135.909 39.0519 137.355 39.6504C138.452 40.0993 139.5 40.4983 139.5 41.3461C139.5 42.3935 138.602 42.8923 137.604 42.8923C136.657 42.8923 135.859 42.4933 135.111 41.6454L133.614 42.9421C134.612 44.1391 136.058 44.7376 137.654 44.7376C139.799 44.7376 141.794 43.6903 141.794 41.1965C141.744 39.2514 139.899 38.4534 138.452 37.8549Z" fill="#0D0D21"/>
<path d="M150.222 33.0171C148.776 33.0171 147.429 33.7652 146.581 35.062L146.532 33.2665H144.337V44.5381H146.631V37.0569C147.379 35.8599 148.576 35.062 149.773 35.062C150.671 35.062 151.27 35.4111 151.619 35.9098C152.118 36.7078 152.167 37.8051 152.167 38.8524V44.4883H154.462V38.6529C154.462 36.9572 154.262 35.4609 153.464 34.4136C152.766 33.5158 151.719 33.0171 150.222 33.0171Z" fill="#0D0D21"/>
<path d="M159.848 33.2666H157.554V44.5383H159.848V33.2666Z" fill="#0D0D21"/>
<path d="M159.848 28.8276H157.554V31.2216H159.848V28.8276Z" fill="#0D0D21"/>
<path d="M168.975 33.0171C167.529 33.0171 166.182 33.7652 165.334 35.062L165.284 33.2665H163.09V44.5381H165.384V37.0569C166.132 35.8599 167.329 35.062 168.526 35.062C169.424 35.062 170.023 35.4111 170.372 35.9098C170.87 36.7078 170.92 37.8051 170.92 38.8524V44.4883H173.215V38.6529C173.215 36.9572 173.015 35.4609 172.217 34.4136C171.519 33.5158 170.471 33.0171 168.975 33.0171Z" fill="#0D0D21"/>
<path d="M184.586 34.5133C183.689 33.5158 182.292 32.9672 181.045 32.9672C177.704 32.9672 175.459 35.6604 175.459 38.7028C175.459 41.9945 177.803 44.4882 180.995 44.4882C182.292 44.4882 183.738 43.8898 184.536 42.7925V44.2389C184.536 46.5331 182.94 47.4309 181.095 47.4309C179.748 47.4309 178.103 46.8324 177.005 46.0344L176.108 47.9795C177.554 48.977 179.449 49.4757 181.145 49.4757C183.24 49.4757 185.185 48.7276 186.182 46.8324C186.581 46.0344 186.831 45.0369 186.831 43.8898V33.2664H184.636L184.586 34.5133ZM184.487 40.4484C183.888 41.795 182.492 42.4434 181.344 42.4434C179.15 42.4434 177.803 40.7975 177.803 38.7527C177.803 36.9073 178.95 35.0121 181.394 35.0121C182.492 35.0121 183.738 35.5607 184.536 36.6579V40.4484H184.487Z" fill="#0D0D21"/>
<path d="M193.863 37.855C192.816 37.456 191.769 37.0071 191.769 36.2091C191.769 35.4111 192.417 34.8625 193.315 34.8625C194.113 34.8625 195.011 35.2615 195.559 35.7104L196.906 34.264C195.958 33.4162 194.661 32.9673 193.365 32.9673C191.42 32.9673 189.624 34.0645 189.624 36.3588C189.624 38.3537 191.32 39.052 192.766 39.6505C193.863 40.0994 194.911 40.4984 194.911 41.3462C194.911 42.3936 194.013 42.8923 193.016 42.8923C192.068 42.8923 191.27 42.4933 190.522 41.6455L189.026 42.9422C190.023 44.1392 191.469 44.7377 193.065 44.7377C195.21 44.7377 197.205 43.6903 197.205 41.1966C197.155 39.2515 195.36 38.4535 193.863 37.855Z" fill="#0D0D21"/>
<path d="M205.633 33.017C204.337 33.017 202.84 33.6155 202.042 34.7626L201.993 33.2664H199.798V50.124H202.092V43.3411C202.99 44.2887 204.337 44.7874 205.584 44.7874C208.925 44.7874 211.169 41.9446 211.169 38.9022C211.169 35.6105 208.825 33.017 205.633 33.017ZM205.185 42.7426C204.087 42.7426 202.84 42.1939 202.042 41.0967V37.0569C202.641 35.7102 204.037 35.0619 205.185 35.0619C207.379 35.0619 208.726 36.8574 208.726 38.8523C208.825 40.7476 207.628 42.7426 205.185 42.7426Z" fill="#0D0D21"/>
<path d="M215.758 27.8301H213.464V44.5381H215.758V27.8301Z" fill="#0D0D21"/>
<path d="M223.139 33.0171C221.543 33.0171 219.797 33.5158 218.6 34.0645L219.249 35.9098C220.196 35.4111 221.493 34.9123 222.79 34.9123C224.585 34.9123 225.333 35.8599 225.333 37.5058V37.8549C224.436 37.6554 223.688 37.6056 223.139 37.6056C220.695 37.6056 218.152 38.5033 218.152 41.3462C218.152 43.7401 220.047 44.8374 222.142 44.8374C223.538 44.8374 224.585 44.4384 225.433 43.4409L225.483 44.588H227.578V37.7053C227.628 34.7627 226.381 33.0171 223.139 33.0171ZM225.333 41.7452C224.486 42.4434 223.588 42.992 222.491 42.992C221.393 42.992 220.396 42.4933 220.396 41.2464C220.396 39.6504 222.092 39.3013 223.438 39.3013C223.987 39.3013 224.585 39.3512 225.333 39.5008V41.7452Z" fill="#0D0D21"/>
<path d="M239.399 34.4136C238.75 33.5158 237.703 32.9672 236.207 32.9672C234.76 32.9672 233.414 33.7153 232.566 35.0121L232.516 33.2166H230.321V44.4882H232.616V37.007C233.364 35.8101 234.561 35.0121 235.758 35.0121C236.655 35.0121 237.254 35.3612 237.603 35.8599C238.102 36.6579 238.152 37.7552 238.152 38.8025V44.4384H240.446V38.6529C240.396 37.007 240.147 35.5108 239.399 34.4136Z" fill="#0D0D21"/>
<path d="M127.331 33.2666L122.892 44.5383H120.947L116.657 33.2666H119.201L122.044 41.5957H122.094L124.887 33.2666H127.331Z" fill="#0D0D21"/>
<path d="M114.912 33.0171C113.715 33.0171 112.717 33.865 112.069 35.062L112.019 33.3163H109.824V44.588H112.119V36.9572C112.717 35.8599 113.565 35.2116 114.662 35.2116C115.061 35.2116 115.41 35.2614 115.71 35.4609V33.067C115.46 33.0171 115.211 33.0171 114.912 33.0171Z" fill="#0D0D21"/>
<defs>
<linearGradient id="paint0_linear_1_170" x1="0" y1="34.3892" x2="41.3139" y2="34.3892" gradientUnits="userSpaceOnUse">
<stop stop-color="#0D0D21"/>
<stop offset="1" stop-color="#194463"/>
</linearGradient>
<linearGradient id="paint1_linear_1_170" x1="47.4332" y1="3.7987" x2="35.2772" y2="11.1981" gradientUnits="userSpaceOnUse">
<stop stop-color="#F4E353"/>
<stop offset="1" stop-color="#EDB031"/>
</linearGradient>
</defs>
</svg>
