<svg width="26" height="26" viewBox="0 0 26 26" fill="none" xmlns="http://www.w3.org/2000/svg">
<g clip-path="url(#clip0_1_300)">
<path d="M13 13.0001C11.8083 13.0001 10.8333 12.0251 10.8333 10.8334C10.8333 9.64175 11.8083 8.66675 13 8.66675C14.1917 8.66675 15.1667 9.64175 15.1667 10.8334C15.1667 12.0251 14.1917 13.0001 13 13.0001ZM19.5 11.0501C19.5 7.11758 16.6292 4.33341 13 4.33341C9.37084 4.33341 6.50001 7.11758 6.50001 11.0501C6.50001 13.5851 8.61251 16.9434 13 20.9517C17.3875 16.9434 19.5 13.5851 19.5 11.0501ZM13 2.16675C17.55 2.16675 21.6667 5.65508 21.6667 11.0501C21.6667 14.6467 18.7742 18.9042 13 23.8334C7.22584 18.9042 4.33334 14.6467 4.33334 11.0501C4.33334 5.65508 8.45001 2.16675 13 2.16675Z" fill="#173B58"/>
</g>
<defs>
<clipPath id="clip0_1_300">
<rect width="26" height="26" fill="white"/>
</clipPath>
</defs>
</svg>
